JosefinSlab-ThinItalic.ufo
<glyph name="quotesingle" format="2">
  <advance width="147"/>
  <unicode hex="0027"/>
  <outline>
    <contour>
      <point x="49" y="472" type="line"/>
      <point x="84" y="720" type="line"/>
      <point x="102" y="720" type="line"/>
      <point x="92" y="657"/>
      <point x="73" y="535"/>
      <point x="63" y="472" type="qcurve"/>
    </contour>
  </outline>
</glyph>
<glyph name="comma" format="2">
  <advance width="200"/>
  <unicode hex="002C"/>
  <outline>
    <contour>
      <point x="141" y="86" type="line"/>
      <point x="112" y="34"/>
      <point x="55" y="-68"/>
      <point x="26" y="-120" type="qcurve"/>
      <point x="12" y="-120" type="line"/>
      <point x="39" y="-68"/>
      <point x="91" y="34"/>
      <point x="118" y="86" type="qcurve"/>
    </contour>
  </outline>
</glyph>
<glyph name="zero" format="2">
  <advance width="616"/>
  <unicode hex="0030"/>
  <outline>
    <contour>
      <point x="67" y="327" type="qcurve" smooth="yes"/>
      <point x="74" y="375"/>
      <point x="119" y="490"/>
      <point x="158" y="541" type="qcurve" smooth="yes" name="inserted"/>
      <point x="197" y="591"/>
      <point x="310" y="658"/>
      <point x="385" y="658" type="qcurve" smooth="yes"/>
      <point x="459" y="658"/>
      <point x="551" y="589"/>
      <point x="575" y="539" type="qcurve" smooth="yes" name="inserted"/>
      <point x="599" y="488"/>
      <point x="610" y="372"/>
      <point x="603" y="324" type="qcurve" smooth="yes"/>
      <point x="593" y="255"/>
      <point x="532" y="134"/>
      <point x="489" y="89" type="qcurve" smooth="yes" name="inserted"/>
      <point x="446" y="44"/>
      <point x="340" y="-7"/>
      <point x="285" y="-7" type="qcurve" smooth="yes"/>
      <point x="230" y="-7"/>
      <point x="141" y="46"/>
      <point x="111" y="91" type="qcurve" smooth="yes" name="inserted"/>
      <point x="81" y="136"/>
      <point x="57" y="257"/>
    </contour>
    <contour>
      <point x="82" y="328" type="qcurve" smooth="yes"/>
      <point x="71" y="255"/>
      <point x="97" y="137"/>
      <point x="127" y="95" type="qcurve" smooth="yes" name="inserted"/>
      <point x="156" y="53"/>
      <point x="241" y="7"/>
      <point x="289" y="7" type="qcurve" smooth="yes"/>
      <point x="337" y="7"/>
      <point x="435" y="51"/>
      <point x="477" y="92" type="qcurve" smooth="yes" name="inserted"/>
      <point x="518" y="133"/>
      <point x="578" y="251"/>
      <point x="589" y="323" type="qcurve" smooth="yes"/>
      <point x="600" y="396"/>
      <point x="578" y="515"/>
      <point x="550" y="557" type="qcurve" smooth="yes" name="inserted"/>
      <point x="522" y="598"/>
      <point x="436" y="644"/>
      <point x="382" y="644" type="qcurve" smooth="yes"/>
      <point x="328" y="644"/>
      <point x="229" y="601"/>
      <point x="189" y="560" type="qcurve" smooth="yes" name="inserted"/>
      <point x="149" y="518"/>
      <point x="92" y="401"/>
    </contour>
  </outline>
</glyph>
<glyph name="one" format="2">
  <advance width="249"/>
  <unicode hex="0031"/>
  <outline>
    <contour>
      <point x="41" y="14" type="line"/>
      <point x="121" y="14" type="line"/>
      <point x="208" y="636" type="line"/>
      <point x="95" y="636" type="line"/>
      <point x="97" y="650" type="line"/>
      <point x="224" y="650" type="line"/>
      <point x="135" y="14" type="line"/>
      <point x="215" y="14" type="line"/>
      <point x="213" y="0" type="line"/>
      <point x="39" y="0" type="line"/>
    </contour>
  </outline>
</glyph>
<glyph name="two" format="2">
  <advance width="495"/>
  <unicode hex="0032"/>
  <outline>
    <contour>
      <point x="84" y="14" type="qcurve"/>
      <point x="430" y="14" type="line"/>
      <point x="446" y="127" type="line"/>
      <point x="460" y="127" type="line"/>
      <point x="442" y="0" type="line"/>
      <point x="46" y="0" type="line"/>
      <point x="119" y="62"/>
      <point x="257" y="183"/>
      <point x="312" y="241" type="qcurve" smooth="yes" name="inserted"/>
      <point x="367" y="298"/>
      <point x="439" y="405"/>
      <point x="446" y="452" type="qcurve" smooth="yes"/>
      <point x="454" y="508"/>
      <point x="433" y="582"/>
      <point x="412" y="604" type="qcurve" smooth="yes" name="inserted"/>
      <point x="391" y="626"/>
      <point x="337" y="644"/>
      <point x="312" y="644" type="qcurve" smooth="yes"/>
      <point x="262" y="644"/>
      <point x="194" y="609"/>
      <point x="172" y="583" type="qcurve" smooth="yes" name="inserted"/>
      <point x="150" y="556"/>
      <point x="127" y="495"/>
      <point x="123" y="469" type="qcurve" smooth="yes"/>
      <point x="118" y="434" name="inserted"/>
      <point x="130" y="377"/>
      <point x="147" y="355" type="qcurve"/>
      <point x="137" y="347" type="line"/>
      <point x="120" y="371"/>
      <point x="104" y="428"/>
      <point x="109" y="469" type="qcurve" smooth="yes"/>
      <point x="115" y="509"/>
      <point x="148" y="578"/>
      <point x="174" y="604" type="qcurve" smooth="yes" name="inserted"/>
      <point x="200" y="629"/>
      <point x="271" y="658"/>
      <point x="314" y="658" type="qcurve" smooth="yes"/>
      <point x="353" y="658"/>
      <point x="413" y="629"/>
      <point x="433" y="603" type="qcurve" smooth="yes" name="inserted"/>
      <point x="452" y="577"/>
      <point x="467" y="506"/>
      <point x="461" y="464" type="qcurve" smooth="yes"/>
      <point x="453" y="406"/>
      <point x="378" y="291"/>
      <point x="324" y="235" type="qcurve" smooth="yes" name="inserted"/>
      <point x="270" y="179"/>
      <point x="144" y="68"/>
    </contour>
  </outline>
</glyph>
<glyph name="three" format="2">
  <advance width="515"/>
  <unicode hex="0033"/>
  <outline>
    <contour>
      <point x="206" y="361" type="qcurve"/>
      <point x="457" y="636" type="line"/>
      <point x="184" y="636" type="line"/>
      <point x="174" y="568" type="line"/>
      <point x="160" y="568" type="line"/>
      <point x="172" y="650" type="line"/>
      <point x="491" y="650" type="line"/>
      <point x="256" y="398" type="line"/>
      <point x="302" y="400"/>
      <point x="379" y="371"/>
      <point x="406" y="344" type="qcurve" smooth="yes" name="inserted"/>
      <point x="432" y="317"/>
      <point x="457" y="240"/>
      <point x="451" y="195" type="qcurve" smooth="yes"/>
      <point x="445" y="153"/>
      <point x="402" y="79"/>
      <point x="371" y="52" type="qcurve" smooth="yes" name="inserted"/>
      <point x="339" y="24"/>
      <point x="260" y="-8"/>
      <point x="218" y="-8" type="qcurve" smooth="yes"/>
      <point x="173" y="-8"/>
      <point x="102" y="28"/>
      <point x="79" y="58" type="qcurve"/>
      <point x="90" y="71" type="line"/>
      <point x="110" y="42"/>
      <point x="175" y="6"/>
      <point x="217" y="6" type="qcurve" smooth="yes"/>
      <point x="256" y="6"/>
      <point x="331" y="36"/>
      <point x="361" y="62" type="qcurve" smooth="yes" name="inserted"/>
      <point x="391" y="88"/>
      <point x="431" y="157"/>
      <point x="437" y="195" type="qcurve" smooth="yes"/>
      <point x="443" y="234"/>
      <point x="421" y="303"/>
      <point x="399" y="329" type="qcurve" smooth="yes" name="inserted"/>
      <point x="376" y="354"/>
      <point x="309" y="384"/>
      <point x="270" y="384" type="qcurve" smooth="yes"/>
      <point x="254" y="384"/>
      <point x="221" y="372"/>
    </contour>
  </outline>
</glyph>
<glyph name="five" format="2">
  <advance width="543"/>
  <unicode hex="0035"/>
  <outline>
    <contour>
      <point x="496" y="650" type="line"/>
      <point x="484" y="568" type="line"/>
      <point x="470" y="568" type="line"/>
      <point x="480" y="636" type="line"/>
      <point x="221" y="636" type="line"/>
      <point x="184" y="372" type="line"/>
      <point x="208" y="383"/>
      <point x="259" y="395"/>
      <point x="285" y="395" type="qcurve" smooth="yes"/>
      <point x="327" y="395"/>
      <point x="397" y="364"/>
      <point x="422" y="337" type="qcurve" smooth="yes" name="inserted"/>
      <point x="446" y="310"/>
      <point x="468" y="237"/>
      <point x="462" y="195" type="qcurve" smooth="yes"/>
      <point x="456" y="153"/>
      <point x="413" y="79"/>
      <point x="381" y="52" type="qcurve" smooth="yes" name="inserted"/>
      <point x="349" y="24"/>
      <point x="270" y="-8"/>
      <point x="228" y="-8" type="qcurve" smooth="yes"/>
      <point x="187" y="-8"/>
      <point x="120" y="22"/>
      <point x="96" y="48" type="qcurve"/>
      <point x="109" y="58" type="line"/>
      <point x="129" y="33"/>
      <point x="190" y="6"/>
      <point x="228" y="6" type="qcurve" smooth="yes"/>
      <point x="268" y="6"/>
      <point x="342" y="36"/>
      <point x="372" y="62" type="qcurve" smooth="yes" name="inserted"/>
      <point x="402" y="88"/>
      <point x="442" y="157"/>
      <point x="448" y="195" type="qcurve" smooth="yes"/>
      <point x="453" y="234"/>
      <point x="432" y="301"/>
      <point x="410" y="327" type="qcurve" smooth="yes" name="inserted"/>
      <point x="387" y="352"/>
      <point x="321" y="381"/>
      <point x="281" y="381" type="qcurve" smooth="yes"/>
      <point x="246" y="381"/>
      <point x="185" y="358"/>
      <point x="165" y="341" type="qcurve"/>
      <point x="209" y="650" type="line"/>
    </contour>
  </outline>
</glyph>
<glyph name="six" format="2">
  <advance width="520"/>
  <unicode hex="0036"/>
  <outline>
    <contour>
      <point x="76" y="193" type="qcurve" smooth="yes"/>
      <point x="70" y="154"/>
      <point x="90" y="86"/>
      <point x="113" y="61" type="qcurve" smooth="yes" name="inserted"/>
      <point x="135" y="35"/>
      <point x="200" y="6"/>
      <point x="239" y="6" type="qcurve" smooth="yes"/>
      <point x="278" y="6"/>
      <point x="352" y="35"/>
      <point x="382" y="61" type="qcurve" smooth="yes" name="inserted"/>
      <point x="411" y="86"/>
      <point x="451" y="154"/>
      <point x="457" y="193" type="qcurve" smooth="yes"/>
      <point x="462" y="232"/>
      <point x="442" y="300"/>
      <point x="420" y="326" type="qcurve" smooth="yes" name="inserted"/>
      <point x="397" y="351"/>
      <point x="331" y="381"/>
      <point x="292" y="381" type="qcurve" smooth="yes"/>
      <point x="253" y="381"/>
      <point x="179" y="351"/>
      <point x="150" y="326" type="qcurve" smooth="yes" name="inserted"/>
      <point x="121" y="300"/>
      <point x="81" y="232"/>
    </contour>
    <contour>
      <point x="63" y="193" type="qcurve" smooth="yes"/>
      <point x="73" y="266"/>
      <point x="152" y="391"/>
      <point x="208" y="445" type="qcurve" smooth="yes" name="inserted"/>
      <point x="264" y="499"/>
      <point x="395" y="592"/>
      <point x="457" y="633" type="qcurve"/>
      <point x="459" y="630" name="inserted"/>
      <point x="463" y="623"/>
      <point x="465" y="620" type="qcurve"/>
      <point x="392" y="576"/>
      <point x="278" y="490"/>
      <point x="236" y="451" type="qcurve" smooth="yes" name="inserted"/>
      <point x="193" y="411"/>
      <point x="136" y="342"/>
      <point x="121" y="314" type="qcurve"/>
      <point x="154" y="351"/>
      <point x="244" y="395"/>
      <point x="295" y="395" type="qcurve" smooth="yes"/>
      <point x="337" y="395"/>
      <point x="407" y="363"/>
      <point x="431" y="336" type="qcurve" smooth="yes" name="inserted"/>
      <point x="455" y="308"/>
      <point x="477" y="235"/>
      <point x="471" y="193" type="qcurve" smooth="yes"/>
      <point x="465" y="151"/>
      <point x="422" y="78"/>
      <point x="391" y="51" type="qcurve" smooth="yes" name="inserted"/>
      <point x="359" y="24"/>
      <point x="280" y="-8"/>
      <point x="238" y="-8" type="qcurve" smooth="yes"/>
      <point x="196" y="-8"/>
      <point x="126" y="24"/>
      <point x="102" y="51" type="qcurve" smooth="yes" name="inserted"/>
      <point x="78" y="78"/>
      <point x="57" y="151"/>
    </contour>
  </outline>
</glyph>
<glyph name="seven" format="2">
  <advance width="469"/>
  <unicode hex="0037"/>
  <outline>
    <contour>
      <point x="500" y="650" type="line"/>
      <point x="117" y="0" type="line"/>
      <point x="99" y="0" type="line"/>
      <point x="475" y="636" type="line"/>
      <point x="111" y="636" type="line"/>
      <point x="102" y="568" type="line"/>
      <point x="88" y="568" type="line"/>
      <point x="99" y="650" type="line"/>
    </contour>
  </outline>
</glyph>
<glyph name="eight" format="2">
  <advance width="510"/>
  <unicode hex="0038"/>
  <outline>
    <contour>
      <point x="188" y="511" type="qcurve" smooth="yes"/>
      <point x="184" y="486"/>
      <point x="198" y="444"/>
      <point x="214" y="429" type="qcurve" smooth="yes" name="inserted"/>
      <point x="230" y="413"/>
      <point x="275" y="396"/>
      <point x="303" y="396" type="qcurve" smooth="yes"/>
      <point x="330" y="396"/>
      <point x="380" y="413"/>
      <point x="400" y="429" type="qcurve" smooth="yes" name="inserted"/>
      <point x="419" y="444"/>
      <point x="444" y="486"/>
      <point x="448" y="511" type="qcurve" smooth="yes"/>
      <point x="452" y="538"/>
      <point x="439" y="586"/>
      <point x="424" y="604" type="qcurve" smooth="yes" name="inserted"/>
      <point x="409" y="622"/>
      <point x="365" y="644"/>
      <point x="338" y="644" type="qcurve" smooth="yes"/>
      <point x="310" y="644"/>
      <point x="259" y="622"/>
      <point x="239" y="604" type="qcurve" smooth="yes" name="inserted"/>
      <point x="219" y="586"/>
      <point x="192" y="538"/>
    </contour>
    <contour>
      <point x="88" y="195" type="qcurve" smooth="yes"/>
      <point x="83" y="157"/>
      <point x="102" y="88"/>
      <point x="124" y="62" type="qcurve" smooth="yes" name="inserted"/>
      <point x="145" y="36"/>
      <point x="209" y="5"/>
      <point x="248" y="5" type="qcurve" smooth="yes"/>
      <point x="288" y="5"/>
      <point x="362" y="36"/>
      <point x="392" y="62" type="qcurve" smooth="yes" name="inserted"/>
      <point x="422" y="88"/>
      <point x="462" y="157"/>
      <point x="467" y="195" type="qcurve" smooth="yes"/>
      <point x="473" y="234"/>
      <point x="452" y="301"/>
      <point x="429" y="327" type="qcurve" smooth="yes" name="inserted"/>
      <point x="406" y="352"/>
      <point x="340" y="381"/>
      <point x="300" y="381" type="qcurve" smooth="yes"/>
      <point x="261" y="381"/>
      <point x="189" y="352"/>
      <point x="161" y="327" type="qcurve" smooth="yes" name="inserted"/>
      <point x="132" y="301"/>
      <point x="94" y="234"/>
    </contour>
    <contour>
      <point x="74" y="195" type="qcurve" smooth="yes"/>
      <point x="79" y="230"/>
      <point x="110" y="293"/>
      <point x="134" y="319" type="qcurve" smooth="yes" name="inserted"/>
      <point x="158" y="344"/>
      <point x="218" y="381"/>
      <point x="252" y="389" type="qcurve"/>
      <point x="212" y="403"/>
      <point x="168" y="472"/>
      <point x="175" y="518" type="qcurve" smooth="yes"/>
      <point x="179" y="547"/>
      <point x="208" y="598"/>
      <point x="231" y="617" type="qcurve" smooth="yes" name="inserted"/>
      <point x="253" y="636"/>
      <point x="308" y="658"/>
      <point x="338" y="658" type="qcurve" smooth="yes"/>
      <point x="368" y="658"/>
      <point x="417" y="635"/>
      <point x="434" y="616" type="qcurve" smooth="yes" name="inserted"/>
      <point x="451" y="596"/>
      <point x="466" y="544"/>
      <point x="462" y="514" type="qcurve" smooth="yes"/>
      <point x="456" y="470"/>
      <point x="395" y="403"/>
      <point x="352" y="389" type="qcurve"/>
      <point x="385" y="381"/>
      <point x="437" y="345"/>
      <point x="455" y="320" type="qcurve" smooth="yes" name="inserted"/>
      <point x="472" y="294"/>
      <point x="486" y="231"/>
      <point x="481" y="195" type="qcurve" smooth="yes"/>
      <point x="475" y="153"/>
      <point x="432" y="79"/>
      <point x="401" y="52" type="qcurve" smooth="yes" name="inserted"/>
      <point x="369" y="24"/>
      <point x="290" y="-8"/>
      <point x="248" y="-8" type="qcurve" smooth="yes"/>
      <point x="206" y="-8"/>
      <point x="137" y="24"/>
      <point x="114" y="52" type="qcurve" smooth="yes" name="inserted"/>
      <point x="90" y="79"/>
      <point x="68" y="153"/>
    </contour>
  </outline>
</glyph>
<glyph name="nine" format="2">
  <advance width="525"/>
  <unicode hex="0039"/>
  <outline>
    <contour>
      <point x="506" y="432" type="qcurve" smooth="yes"/>
      <point x="512" y="471"/>
      <point x="492" y="539"/>
      <point x="470" y="565" type="qcurve" smooth="yes" name="inserted"/>
      <point x="447" y="590"/>
      <point x="382" y="619"/>
      <point x="343" y="619" type="qcurve" smooth="yes"/>
      <point x="304" y="619"/>
      <point x="230" y="590"/>
      <point x="201" y="565" type="qcurve" smooth="yes" name="inserted"/>
      <point x="171" y="539"/>
      <point x="131" y="471"/>
      <point x="125" y="432" type="qcurve" smooth="yes"/>
      <point x="120" y="393"/>
      <point x="140" y="324"/>
      <point x="163" y="299" type="qcurve" smooth="yes" name="inserted"/>
      <point x="185" y="273"/>
      <point x="251" y="244"/>
      <point x="290" y="244" type="qcurve" smooth="yes"/>
      <point x="329" y="244"/>
      <point x="403" y="273"/>
      <point x="432" y="299" type="qcurve" smooth="yes" name="inserted"/>
      <point x="461" y="324"/>
      <point x="501" y="393"/>
    </contour>
    <contour>
      <point x="519" y="432" type="qcurve" smooth="yes"/>
      <point x="509" y="359"/>
      <point x="430" y="234"/>
      <point x="374" y="180" type="qcurve" smooth="yes" name="inserted"/>
      <point x="318" y="126"/>
      <point x="187" y="33"/>
      <point x="125" y="-8" type="qcurve"/>
      <point x="123" y="-4" name="inserted"/>
      <point x="119" y="2"/>
      <point x="117" y="5" type="qcurve"/>
      <point x="190" y="49"/>
      <point x="304" y="135"/>
      <point x="347" y="175" type="qcurve" smooth="yes" name="inserted"/>
      <point x="389" y="214"/>
      <point x="446" y="283"/>
      <point x="461" y="311" type="qcurve"/>
      <point x="428" y="274"/>
      <point x="338" y="230"/>
      <point x="287" y="230" type="qcurve" smooth="yes"/>
      <point x="245" y="230"/>
      <point x="175" y="262"/>
      <point x="151" y="290" type="qcurve" smooth="yes" name="inserted"/>
      <point x="127" y="317"/>
      <point x="105" y="390"/>
      <point x="111" y="432" type="qcurve" smooth="yes"/>
      <point x="117" y="474"/>
      <point x="160" y="547"/>
      <point x="192" y="574" type="qcurve" smooth="yes" name="inserted"/>
      <point x="223" y="601"/>
      <point x="302" y="633"/>
      <point x="344" y="633" type="qcurve" smooth="yes"/>
      <point x="386" y="633"/>
      <point x="456" y="601"/>
      <point x="480" y="574" type="qcurve" smooth="yes" name="inserted"/>
      <point x="504" y="547"/>
      <point x="525" y="474"/>
    </contour>
  </outline>
</glyph>
<glyph name="equal" format="2">
  <advance width="708"/>
  <unicode hex="003D"/>
  <outline>
    <contour>
      <point x="593" y="164" type="line"/>
      <point x="591" y="150" type="line"/>
      <point x="85" y="150" type="line"/>
      <point x="87" y="164" type="line"/>
    </contour>
    <contour>
      <point x="620" y="358" type="line"/>
      <point x="618" y="344" type="line"/>
      <point x="112" y="344" type="line"/>
      <point x="114" y="358" type="line"/>
    </contour>
  </outline>
</glyph>
<glyph name="G" format="2">
  <advance width="661"/>
  <unicode hex="0047"/>
  <outline>
    <contour>
      <point x="617" y="298" type="line"/>
      <point x="581" y="40" type="line"/>
      <point x="538" y="17"/>
      <point x="444" y="-10"/>
      <point x="393" y="-10" type="qcurve" smooth="yes"/>
      <point x="319" y="-10"/>
      <point x="197" y="46"/>
      <point x="155" y="95" type="qcurve" smooth="yes" name="inserted"/>
      <point x="113" y="143"/>
      <point x="75" y="273"/>
      <point x="85" y="347" type="qcurve" smooth="yes"/>
      <point x="95" y="421"/>
      <point x="170" y="552"/>
      <point x="226" y="601" type="qcurve" smooth="yes" name="inserted"/>
      <point x="281" y="649"/>
      <point x="419" y="706"/>
      <point x="493" y="706" type="qcurve" smooth="yes"/>
      <point x="544" y="706"/>
      <point x="631" y="680"/>
      <point x="669" y="656" type="qcurve"/>
      <point x="659" y="644" type="line"/>
      <point x="624" y="667"/>
      <point x="539" y="692"/>
      <point x="491" y="692" type="qcurve" smooth="yes"/>
      <point x="420" y="692"/>
      <point x="287" y="637"/>
      <point x="234" y="590" type="qcurve" smooth="yes" name="inserted"/>
      <point x="181" y="543"/>
      <point x="109" y="417"/>
      <point x="99" y="346" type="qcurve" smooth="yes"/>
      <point x="89" y="275"/>
      <point x="125" y="151"/>
      <point x="165" y="105" type="qcurve" smooth="yes" name="inserted"/>
      <point x="205" y="58"/>
      <point x="321" y="4"/>
      <point x="391" y="4" type="qcurve" smooth="yes"/>
      <point x="438" y="4"/>
      <point x="526" y="27"/>
      <point x="568" y="49" type="qcurve"/>
      <point x="602" y="284" type="line"/>
      <point x="430" y="284" type="line"/>
      <point x="431" y="298" type="line"/>
    </contour>
  </outline>
</glyph>
<glyph name="underscore" format="2">
  <advance width="600"/>
  <unicode hex="005F"/>
  <outline>
    <contour>
      <point x="499" y="0" type="line"/>
      <point x="99" y="0" type="line"/>
      <point x="100" y="14" type="line"/>
      <point x="500" y="14" type="line"/>
    </contour>
  </outline>
</glyph>
<glyph name="g" format="2">
  <advance width="533"/>
  <unicode hex="0067"/>
  <outline>
    <contour>
      <point x="471" y="375" type="qcurve"/>
      <point x="555" y="375" type="line"/>
      <point x="553" y="361" type="line"/>
      <point x="479" y="361" type="line"/>
      <point x="426" y="-18" type="line" smooth="yes"/>
      <point x="418" y="-74"/>
      <point x="377" y="-159"/>
      <point x="348" y="-188" type="qcurve" smooth="yes" name="inserted"/>
      <point x="318" y="-217"/>
      <point x="247" y="-249"/>
      <point x="209" y="-250" type="qcurve"/>
      <point x="158" y="-250"/>
      <point x="87" y="-222"/>
      <point x="66" y="-190" type="qcurve"/>
      <point x="80" y="-183" type="line"/>
      <point x="100" y="-213"/>
      <point x="169" y="-236"/>
      <point x="205" y="-236" type="qcurve" smooth="yes"/>
      <point x="239" y="-236"/>
      <point x="311" y="-206"/>
      <point x="339" y="-178" type="qcurve" smooth="yes" name="inserted"/>
      <point x="366" y="-150"/>
      <point x="405" y="-71"/>
      <point x="412" y="-22" type="qcurve" smooth="yes"/>
      <point x="422" y="54" type="line" smooth="yes"/>
      <point x="424" y="70"/>
      <point x="430" y="101"/>
      <point x="432" y="117" type="qcurve"/>
      <point x="403" y="63"/>
      <point x="296" y="-6"/>
      <point x="233" y="-6" type="qcurve" smooth="yes"/>
      <point x="192" y="-6"/>
      <point x="126" y="24"/>
      <point x="104" y="51" type="qcurve" smooth="yes" name="inserted"/>
      <point x="81" y="77"/>
      <point x="60" y="147"/>
      <point x="66" y="188" type="qcurve" smooth="yes"/>
      <point x="72" y="228"/>
      <point x="112" y="300"/>
      <point x="142" y="326" type="qcurve" smooth="yes" name="inserted"/>
      <point x="172" y="352"/>
      <point x="246" y="383"/>
      <point x="287" y="383" type="qcurve" smooth="yes"/>
      <point x="318" y="383"/>
      <point x="371" y="365"/>
      <point x="393" y="349" type="qcurve" smooth="yes" name="inserted"/>
      <point x="414" y="332"/>
      <point x="444" y="287"/>
      <point x="451" y="260" type="qcurve"/>
      <point x="456" y="289"/>
      <point x="466" y="346"/>
    </contour>
    <contour>
      <point x="80" y="188" type="qcurve" smooth="yes"/>
      <point x="75" y="150"/>
      <point x="94" y="85"/>
      <point x="115" y="61" type="qcurve" smooth="yes" name="inserted"/>
      <point x="136" y="36"/>
      <point x="197" y="8"/>
      <point x="235" y="8" type="qcurve" smooth="yes"/>
      <point x="272" y="8"/>
      <point x="342" y="36"/>
      <point x="370" y="61" type="qcurve" smooth="yes" name="inserted"/>
      <point x="398" y="85"/>
      <point x="436" y="150"/>
      <point x="441" y="188" type="qcurve" smooth="yes"/>
      <point x="446" y="225"/>
      <point x="427" y="291"/>
      <point x="406" y="316" type="qcurve" smooth="yes" name="inserted"/>
      <point x="385" y="341"/>
      <point x="322" y="369"/>
      <point x="285" y="369" type="qcurve" smooth="yes"/>
      <point x="247" y="369"/>
      <point x="178" y="341"/>
      <point x="150" y="316" type="qcurve" smooth="yes" name="inserted"/>
      <point x="122" y="291"/>
      <point x="85" y="225"/>
    </contour>
  </outline>
</glyph>
<glyph name="o" format="2">
  <advance width="461"/>
  <unicode hex="006F"/>
  <outline>
    <contour>
      <point x="54" y="188" type="qcurve" smooth="yes"/>
      <point x="60" y="228"/>
      <point x="100" y="300"/>
      <point x="130" y="327" type="qcurve" smooth="yes" name="inserted"/>
      <point x="160" y="353"/>
      <point x="234" y="384"/>
      <point x="275" y="384" type="qcurve" smooth="yes"/>
      <point x="315" y="384"/>
      <point x="383" y="353"/>
      <point x="406" y="327" type="qcurve" smooth="yes" name="inserted"/>
      <point x="429" y="300"/>
      <point x="450" y="228"/>
      <point x="444" y="188" type="qcurve" smooth="yes"/>
      <point x="438" y="147"/>
      <point x="398" y="77"/>
      <point x="368" y="51" type="qcurve" smooth="yes" name="inserted"/>
      <point x="337" y="24"/>
      <point x="261" y="-6"/>
      <point x="221" y="-6" type="qcurve" smooth="yes"/>
      <point x="180" y="-6"/>
      <point x="114" y="24"/>
      <point x="92" y="51" type="qcurve" smooth="yes" name="inserted"/>
      <point x="69" y="77"/>
      <point x="48" y="147"/>
    </contour>
    <contour>
      <point x="68" y="188" type="qcurve" smooth="yes"/>
      <point x="63" y="150"/>
      <point x="81" y="85"/>
      <point x="102" y="61" type="qcurve" smooth="yes" name="inserted"/>
      <point x="123" y="36"/>
      <point x="184" y="8"/>
      <point x="222" y="8" type="qcurve" smooth="yes"/>
      <point x="259" y="8"/>
      <point x="330" y="36"/>
      <point x="358" y="61" type="qcurve" smooth="yes" name="inserted"/>
      <point x="386" y="85"/>
      <point x="424" y="150"/>
      <point x="429" y="188" type="qcurve" smooth="yes"/>
      <point x="434" y="225"/>
      <point x="415" y="291"/>
      <point x="394" y="316" type="qcurve" smooth="yes" name="inserted"/>
      <point x="373" y="341"/>
      <point x="310" y="369"/>
      <point x="273" y="369" type="qcurve" smooth="yes"/>
      <point x="235" y="369"/>
      <point x="166" y="341"/>
      <point x="138" y="316" type="qcurve" smooth="yes" name="inserted"/>
      <point x="110" y="291"/>
      <point x="73" y="225"/>
    </contour>
  </outline>
</glyph>
<glyph name="q" format="2">
  <advance width="532"/>
  <unicode hex="0071"/>
  <outline>
    <contour>
      <point x="292" y="-236" type="line"/>
      <point x="380" y="-236" type="line"/>
      <point x="422" y="61" type="line" smooth="yes"/>
      <point x="425" y="79"/>
      <point x="428" y="97"/>
      <point x="431" y="115" type="qcurve"/>
      <point x="402" y="61"/>
      <point x="296" y="-8"/>
      <point x="233" y="-8" type="qcurve" smooth="yes"/>
      <point x="192" y="-8"/>
      <point x="126" y="23"/>
      <point x="104" y="49" type="qcurve" smooth="yes" name="inserted"/>
      <point x="81" y="75"/>
      <point x="60" y="146"/>
      <point x="66" y="187" type="qcurve" smooth="yes"/>
      <point x="72" y="227"/>
      <point x="112" y="298"/>
      <point x="142" y="325" type="qcurve" smooth="yes" name="inserted"/>
      <point x="172" y="351"/>
      <point x="246" y="381"/>
      <point x="287" y="381" type="qcurve" smooth="yes"/>
      <point x="350" y="381"/>
      <point x="438" y="312"/>
      <point x="452" y="257" type="qcurve"/>
      <point x="456" y="286"/>
      <point x="467" y="346"/>
      <point x="471" y="375" type="qcurve"/>
      <point x="554" y="375" type="line"/>
      <point x="552" y="361" type="line"/>
      <point x="479" y="361" type="line"/>
      <point x="395" y="-236" type="line"/>
      <point x="466" y="-236" type="line"/>
      <point x="465" y="-250" type="line"/>
      <point x="291" y="-250" type="line"/>
    </contour>
    <contour>
      <point x="80" y="187" type="qcurve" smooth="yes"/>
      <point x="75" y="149"/>
      <point x="93" y="84"/>
      <point x="114" y="59" type="qcurve" smooth="yes" name="inserted"/>
      <point x="135" y="34"/>
      <point x="196" y="6"/>
      <point x="234" y="6" type="qcurve" smooth="yes"/>
      <point x="271" y="6"/>
      <point x="342" y="34"/>
      <point x="370" y="59" type="qcurve" smooth="yes" name="inserted"/>
      <point x="398" y="84"/>
      <point x="436" y="149"/>
      <point x="441" y="187" type="qcurve" smooth="yes"/>
      <point x="446" y="224"/>
      <point x="427" y="290"/>
      <point x="406" y="315" type="qcurve" smooth="yes" name="inserted"/>
      <point x="385" y="339"/>
      <point x="322" y="367"/>
      <point x="285" y="367" type="qcurve" smooth="yes"/>
      <point x="247" y="367"/>
      <point x="178" y="339"/>
      <point x="150" y="315" type="qcurve" smooth="yes" name="inserted"/>
      <point x="122" y="290"/>
      <point x="85" y="224"/>
    </contour>
  </outline>
</glyph>
<glyph name="y" format="2">
  <advance width="590"/>
  <unicode hex="0079"/>
  <outline>
    <contour>
      <point x="43" y="-236" type="line"/>
      <point x="124" y="-236" type="line"/>
      <point x="161" y="-178"/>
      <point x="236" y="-61"/>
      <point x="273" y="-4" type="qcurve"/>
      <point x="240" y="87"/>
      <point x="174" y="269"/>
      <point x="142" y="361" type="qcurve"/>
      <point x="70" y="361" type="line"/>
      <point x="72" y="375" type="line"/>
      <point x="233" y="375" type="line"/>
      <point x="231" y="361" type="line"/>
      <point x="160" y="361" type="line"/>
      <point x="191" y="273"/>
      <point x="253" y="101"/>
      <point x="285" y="14" type="qcurve"/>
      <point x="338" y="97"/>
      <point x="450" y="273"/>
      <point x="506" y="361" type="qcurve"/>
      <point x="451" y="361" type="line"/>
      <point x="453" y="375" type="line"/>
      <point x="592" y="375" type="line"/>
      <point x="590" y="361" type="line"/>
      <point x="524" y="361" type="line"/>
      <point x="427" y="211"/>
      <point x="239" y="-86"/>
      <point x="143" y="-236" type="qcurve"/>
      <point x="217" y="-236" type="line"/>
      <point x="216" y="-250" type="line"/>
      <point x="42" y="-250" type="line"/>
    </contour>
  </outline>
</glyph>
<glyph name="brokenbar" format="2">
  <advance width="215"/>
  <unicode hex="00A6"/>
  <outline>
    <contour>
      <point x="116" y="-233" type="line"/>
      <point x="102" y="-233" type="line"/>
      <point x="151" y="117" type="line"/>
      <point x="165" y="117" type="line"/>
    </contour>
    <contour>
      <point x="197" y="350" type="line"/>
      <point x="183" y="350" type="line"/>
      <point x="233" y="700" type="line"/>
      <point x="247" y="700" type="line"/>
    </contour>
  </outline>
</glyph>
<glyph name="macron" format="2">
  <advance width="399"/>
  <unicode hex="00AF"/>
  <outline>
    <contour>
      <point x="85" y="492" type="line"/>
      <point x="86" y="506" type="line"/>
      <point x="316" y="506" type="line"/>
      <point x="315" y="492" type="line"/>
    </contour>
  </outline>
</glyph>
<glyph name="onesuperior" format="2">
  <advance width="249"/>
  <unicode hex="00B9"/>
  <outline>
    <contour>
      <point x="65" y="381" type="line"/>
      <point x="104" y="381" type="line"/>
      <point x="148" y="693" type="line"/>
      <point x="91" y="693" type="line"/>
      <point x="92" y="700" type="line"/>
      <point x="155" y="700" type="line"/>
      <point x="112" y="381" type="line"/>
      <point x="151" y="381" type="line"/>
      <point x="150" y="375" type="line"/>
      <point x="64" y="375" type="line"/>
    </contour>
  </outline>
</glyph>
<glyph name="emdash" format="2">
  <advance width="700"/>
  <unicode hex="2014"/>
  <outline>
    <contour>
      <point x="99" y="179" type="line"/>
      <point x="100" y="193" type="line"/>
      <point x="602" y="193" type="line"/>
      <point x="601" y="179" type="line"/>
    </contour>
  </outline>
</glyph>
<glyph name="fraction" format="2">
  <advance width="316"/>
  <unicode hex="2044"/>
  <outline>
    <contour>
      <point x="-21" y="0" type="line"/>
      <point x="350" y="755" type="line"/>
      <point x="364" y="755" type="line"/>
      <point x="-7" y="0" type="line"/>
    </contour>
  </outline>
</glyph>
<glyph name="minus" format="2">
  <advance width="523"/>
  <unicode hex="2212"/>
  <outline>
    <contour>
      <point x="71" y="186" type="line"/>
      <point x="73" y="200" type="line"/>
      <point x="433" y="200" type="line"/>
      <point x="431" y="186" type="line"/>
    </contour>
  </outline>
</glyph>
